<mxfile host="app.diagrams.net" agent="Mozilla/5.0 (Windows NT 10.0; Win64; x64) AppleWebKit/537.36 (KHTML, like Gecko) Chrome/137.0.0.0 Safari/537.36" version="27.0.6">
  <diagram name="PÃ¡gina-1" id="kmqZo0G7d1NI66z-sriO">
    <mxGraphModel dx="1511" dy="523" grid="0" gridSize="10" guides="1" tooltips="1" connect="1" arrows="1" fold="1" page="0" pageScale="1" pageWidth="827" pageHeight="1169" math="0" shadow="0">
      <root>
        <mxCell id="0" />
        <mxCell id="1" parent="0" />
        <mxCell id="IiduG0gqYlvxweNFY8qm-2" value="Arcade" style="swimlane;fontStyle=1;align=center;verticalAlign=top;childLayout=stackLayout;horizontal=1;startSize=26;horizontalStack=0;resizeParent=1;resizeParentMax=0;resizeLast=0;collapsible=1;marginBottom=0;whiteSpace=wrap;html=1;" vertex="1" parent="1">
          <mxGeometry x="-189" y="20" width="160" height="112" as="geometry" />
        </mxCell>
        <mxCell id="IiduG0gqYlvxweNFY8qm-3" value="-" style="text;strokeColor=none;fillColor=none;align=left;verticalAlign=top;spacingLeft=4;spacingRight=4;overflow=hidden;rotatable=0;points=[[0,0.5],[1,0.5]];portConstraint=eastwest;whiteSpace=wrap;html=1;" vertex="1" parent="IiduG0gqYlvxweNFY8qm-2">
          <mxGeometry y="26" width="160" height="26" as="geometry" />
        </mxCell>
        <mxCell id="IiduG0gqYlvxweNFY8qm-4" value="" style="line;strokeWidth=1;fillColor=none;align=left;verticalAlign=middle;spacingTop=-1;spacingLeft=3;spacingRight=3;rotatable=0;labelPosition=right;points=[];portConstraint=eastwest;strokeColor=inherit;" vertex="1" parent="IiduG0gqYlvxweNFY8qm-2">
          <mxGeometry y="52" width="160" height="8" as="geometry" />
        </mxCell>
        <mxCell id="IiduG0gqYlvxweNFY8qm-5" value="+ agregarFicha(): void" style="text;strokeColor=none;fillColor=none;align=left;verticalAlign=top;spacingLeft=4;spacingRight=4;overflow=hidden;rotatable=0;points=[[0,0.5],[1,0.5]];portConstraint=eastwest;whiteSpace=wrap;html=1;" vertex="1" parent="IiduG0gqYlvxweNFY8qm-2">
          <mxGeometry y="60" width="160" height="26" as="geometry" />
        </mxCell>
        <mxCell id="IiduG0gqYlvxweNFY8qm-6" value="+ iniciarJuego(): int" style="text;strokeColor=none;fillColor=none;align=left;verticalAlign=top;spacingLeft=4;spacingRight=4;overflow=hidden;rotatable=0;points=[[0,0.5],[1,0.5]];portConstraint=eastwest;whiteSpace=wrap;html=1;" vertex="1" parent="IiduG0gqYlvxweNFY8qm-2">
          <mxGeometry y="86" width="160" height="26" as="geometry" />
        </mxCell>
        <mxCell id="IiduG0gqYlvxweNFY8qm-7" value="&lt;p style=&quot;margin:0px;margin-top:4px;text-align:center;&quot;&gt;&lt;i&gt;&amp;lt;&amp;lt;Interface&amp;gt;&amp;gt;&lt;/i&gt;&lt;br&gt;&lt;b&gt;StateGame&lt;/b&gt;&lt;/p&gt;&lt;hr size=&quot;1&quot; style=&quot;border-style:solid;&quot;&gt;&lt;p style=&quot;margin:0px;margin-left:4px;&quot;&gt;+ agregarFicha(): void&lt;br&gt;+ iniciarJuego(): int&lt;/p&gt;" style="verticalAlign=top;align=left;overflow=fill;html=1;whiteSpace=wrap;" vertex="1" parent="1">
          <mxGeometry x="118" y="36" width="190" height="89" as="geometry" />
        </mxCell>
        <mxCell id="IiduG0gqYlvxweNFY8qm-8" value="SinglerPlayer" style="swimlane;fontStyle=1;align=center;verticalAlign=top;childLayout=stackLayout;horizontal=1;startSize=26;horizontalStack=0;resizeParent=1;resizeParentMax=0;resizeLast=0;collapsible=1;marginBottom=0;whiteSpace=wrap;html=1;" vertex="1" parent="1">
          <mxGeometry x="14" y="204" width="160" height="86" as="geometry" />
        </mxCell>
        <mxCell id="IiduG0gqYlvxweNFY8qm-10" value="" style="line;strokeWidth=1;fillColor=none;align=left;verticalAlign=middle;spacingTop=-1;spacingLeft=3;spacingRight=3;rotatable=0;labelPosition=right;points=[];portConstraint=eastwest;strokeColor=inherit;" vertex="1" parent="IiduG0gqYlvxweNFY8qm-8">
          <mxGeometry y="26" width="160" height="8" as="geometry" />
        </mxCell>
        <mxCell id="IiduG0gqYlvxweNFY8qm-19" value="+ iniciarJuego(): int" style="text;strokeColor=none;fillColor=none;align=left;verticalAlign=top;spacingLeft=4;spacingRight=4;overflow=hidden;rotatable=0;points=[[0,0.5],[1,0.5]];portConstraint=eastwest;whiteSpace=wrap;html=1;" vertex="1" parent="IiduG0gqYlvxweNFY8qm-8">
          <mxGeometry y="34" width="160" height="26" as="geometry" />
        </mxCell>
        <mxCell id="IiduG0gqYlvxweNFY8qm-11" value="+ agregarFicha(): void" style="text;strokeColor=none;fillColor=none;align=left;verticalAlign=top;spacingLeft=4;spacingRight=4;overflow=hidden;rotatable=0;points=[[0,0.5],[1,0.5]];portConstraint=eastwest;whiteSpace=wrap;html=1;" vertex="1" parent="IiduG0gqYlvxweNFY8qm-8">
          <mxGeometry y="60" width="160" height="26" as="geometry" />
        </mxCell>
        <mxCell id="IiduG0gqYlvxweNFY8qm-12" value="Coop" style="swimlane;fontStyle=1;align=center;verticalAlign=top;childLayout=stackLayout;horizontal=1;startSize=26;horizontalStack=0;resizeParent=1;resizeParentMax=0;resizeLast=0;collapsible=1;marginBottom=0;whiteSpace=wrap;html=1;" vertex="1" parent="1">
          <mxGeometry x="260" y="202" width="160" height="86" as="geometry" />
        </mxCell>
        <mxCell id="IiduG0gqYlvxweNFY8qm-14" value="" style="line;strokeWidth=1;fillColor=none;align=left;verticalAlign=middle;spacingTop=-1;spacingLeft=3;spacingRight=3;rotatable=0;labelPosition=right;points=[];portConstraint=eastwest;strokeColor=inherit;" vertex="1" parent="IiduG0gqYlvxweNFY8qm-12">
          <mxGeometry y="26" width="160" height="8" as="geometry" />
        </mxCell>
        <mxCell id="IiduG0gqYlvxweNFY8qm-15" value="+ iniciarJuego(): int" style="text;strokeColor=none;fillColor=none;align=left;verticalAlign=top;spacingLeft=4;spacingRight=4;overflow=hidden;rotatable=0;points=[[0,0.5],[1,0.5]];portConstraint=eastwest;whiteSpace=wrap;html=1;" vertex="1" parent="IiduG0gqYlvxweNFY8qm-12">
          <mxGeometry y="34" width="160" height="26" as="geometry" />
        </mxCell>
        <mxCell id="IiduG0gqYlvxweNFY8qm-20" value="+ agregarFicha():void" style="text;strokeColor=none;fillColor=none;align=left;verticalAlign=top;spacingLeft=4;spacingRight=4;overflow=hidden;rotatable=0;points=[[0,0.5],[1,0.5]];portConstraint=eastwest;whiteSpace=wrap;html=1;" vertex="1" parent="IiduG0gqYlvxweNFY8qm-12">
          <mxGeometry y="60" width="160" height="26" as="geometry" />
        </mxCell>
        <mxCell id="IiduG0gqYlvxweNFY8qm-17" value="" style="endArrow=block;dashed=1;endFill=0;endSize=12;html=1;rounded=0;fontSize=12;curved=1;exitX=0.5;exitY=0;exitDx=0;exitDy=0;entryX=0.432;entryY=1;entryDx=0;entryDy=0;entryPerimeter=0;" edge="1" parent="1" source="IiduG0gqYlvxweNFY8qm-8" target="IiduG0gqYlvxweNFY8qm-7">
          <mxGeometry width="160" relative="1" as="geometry">
            <mxPoint x="-7" y="224" as="sourcePoint" />
            <mxPoint x="153" y="224" as="targetPoint" />
            <Array as="points">
              <mxPoint x="73" y="153" />
              <mxPoint x="210" y="185" />
              <mxPoint x="200" y="161" />
              <mxPoint x="189" y="155" />
            </Array>
          </mxGeometry>
        </mxCell>
        <mxCell id="IiduG0gqYlvxweNFY8qm-18" value="" style="endArrow=block;dashed=1;endFill=0;endSize=12;html=1;rounded=0;fontSize=12;curved=1;exitX=0.5;exitY=0;exitDx=0;exitDy=0;entryX=0.5;entryY=1;entryDx=0;entryDy=0;" edge="1" parent="1" source="IiduG0gqYlvxweNFY8qm-12" target="IiduG0gqYlvxweNFY8qm-7">
          <mxGeometry width="160" relative="1" as="geometry">
            <mxPoint x="-7" y="224" as="sourcePoint" />
            <mxPoint x="153" y="224" as="targetPoint" />
            <Array as="points">
              <mxPoint x="346" y="159" />
              <mxPoint x="201" y="179" />
              <mxPoint x="233" y="155" />
            </Array>
          </mxGeometry>
        </mxCell>
        <mxCell id="IiduG0gqYlvxweNFY8qm-22" value="state" style="endArrow=block;endFill=1;html=1;edgeStyle=orthogonalEdgeStyle;align=left;verticalAlign=top;rounded=0;fontSize=12;startSize=8;endSize=8;curved=1;exitX=1;exitY=0.5;exitDx=0;exitDy=0;entryX=0;entryY=0.25;entryDx=0;entryDy=0;" edge="1" parent="1" source="IiduG0gqYlvxweNFY8qm-3" target="IiduG0gqYlvxweNFY8qm-7">
          <mxGeometry x="-1" relative="1" as="geometry">
            <mxPoint x="-7" y="224" as="sourcePoint" />
            <mxPoint x="153" y="224" as="targetPoint" />
          </mxGeometry>
        </mxCell>
        <mxCell id="IiduG0gqYlvxweNFY8qm-23" value="1" style="edgeLabel;resizable=0;html=1;align=left;verticalAlign=bottom;" connectable="0" vertex="1" parent="IiduG0gqYlvxweNFY8qm-22">
          <mxGeometry x="-1" relative="1" as="geometry" />
        </mxCell>
      </root>
    </mxGraphModel>
  </diagram>
</mxfile>
